<svg xmlns="http://www.w3.org/2000/svg" viewBox="0 0 48 48" fill="none">
  <title>Synfin</title>
  <rect width="48" height="48" rx="10" fill="#070708"/>
  <circle cx="24" cy="24" r="21.5" stroke="rgba(241,239,234,0.5)" stroke-width="1"/>
  <circle cx="24" cy="24" r="15" stroke="rgba(241,239,234,0.28)" stroke-width="1"/>
  <g stroke="rgba(241,239,234,0.5)" stroke-width="0.75" stroke-linecap="round">
    <line x1="41.500" y1="24.000" x2="45.500" y2="24.000"/>
    <line x1="41.350" y1="26.284" x2="45.316" y2="26.806"/>
    <line x1="40.904" y1="28.529" x2="44.767" y2="29.565"/>
    <line x1="40.168" y1="30.697" x2="43.863" y2="32.228"/>
    <line x1="39.155" y1="32.750" x2="42.620" y2="34.750"/>
    <line x1="37.884" y1="34.653" x2="41.057" y2="37.088"/>
    <line x1="36.374" y1="36.374" x2="39.203" y2="39.203"/>
    <line x1="34.653" y1="37.884" x2="37.088" y2="41.057"/>
    <line x1="32.750" y1="39.155" x2="34.750" y2="42.620"/>
    <line x1="30.697" y1="40.168" x2="32.228" y2="43.863"/>
    <line x1="28.529" y1="40.904" x2="29.565" y2="44.767"/>
    <line x1="26.284" y1="41.350" x2="26.806" y2="45.316"/>
    <line x1="24.000" y1="41.500" x2="24.000" y2="45.500"/>
    <line x1="21.716" y1="41.350" x2="21.194" y2="45.316"/>
    <line x1="19.471" y1="40.904" x2="18.435" y2="44.767"/>
    <line x1="17.303" y1="40.168" x2="15.772" y2="43.863"/>
    <line x1="15.250" y1="39.155" x2="13.250" y2="42.620"/>
    <line x1="13.347" y1="37.884" x2="10.912" y2="41.057"/>
    <line x1="11.626" y1="36.374" x2="8.797" y2="39.203"/>
    <line x1="10.116" y1="34.653" x2="6.943" y2="37.088"/>
    <line x1="8.845" y1="32.750" x2="5.380" y2="34.750"/>
    <line x1="7.832" y1="30.697" x2="4.137" y2="32.228"/>
    <line x1="7.096" y1="28.529" x2="3.233" y2="29.565"/>
    <line x1="6.650" y1="26.284" x2="2.684" y2="26.806"/>
    <line x1="6.500" y1="24.000" x2="2.500" y2="24.000"/>
    <line x1="6.650" y1="21.716" x2="2.684" y2="21.194"/>
    <line x1="7.096" y1="19.471" x2="3.233" y2="18.435"/>
    <line x1="7.832" y1="17.303" x2="4.137" y2="15.772"/>
    <line x1="8.845" y1="15.250" x2="5.380" y2="13.250"/>
    <line x1="10.116" y1="13.347" x2="6.943" y2="10.912"/>
    <line x1="11.626" y1="11.626" x2="8.797" y2="8.797"/>
    <line x1="13.347" y1="10.116" x2="10.912" y2="6.943"/>
    <line x1="15.250" y1="8.845" x2="13.250" y2="5.380"/>
    <line x1="17.303" y1="7.832" x2="15.772" y2="4.137"/>
    <line x1="19.471" y1="7.096" x2="18.435" y2="3.233"/>
    <line x1="21.716" y1="6.650" x2="21.194" y2="2.684"/>
    <line x1="24.000" y1="6.500" x2="24.000" y2="2.500"/>
    <line x1="26.284" y1="6.650" x2="26.806" y2="2.684"/>
    <line x1="28.529" y1="7.096" x2="29.565" y2="3.233"/>
    <line x1="30.697" y1="7.832" x2="32.228" y2="4.137"/>
    <line x1="32.750" y1="8.845" x2="34.750" y2="5.380"/>
    <line x1="34.653" y1="10.116" x2="37.088" y2="6.943"/>
    <line x1="36.374" y1="11.626" x2="39.203" y2="8.797"/>
    <line x1="37.884" y1="13.347" x2="41.057" y2="10.912"/>
    <line x1="39.155" y1="15.250" x2="42.620" y2="13.250"/>
    <line x1="40.168" y1="17.303" x2="43.863" y2="15.772"/>
    <line x1="40.904" y1="19.471" x2="44.767" y2="18.435"/>
    <line x1="41.350" y1="21.716" x2="45.316" y2="21.194"/>
  </g>
  <path d="M7 24 C 15 24, 17 15, 24 15 S 33 33, 41 24" stroke="rgba(241,239,234,0.45)" stroke-width="1.3" stroke-linecap="round"/>
  <circle cx="24" cy="24" r="2.6" fill="#CC6A43"/>
</svg>
